<svg xmlns="http://www.w3.org/2000/svg" viewBox="0 0 575.22 284.31"><defs><style>.cls-1{fill:#fff;}.cls-2{fill:#00c5ff;}</style></defs><title>white</title><g id="Camada_2" data-name="Camada 2"><g id="Camada_1-2" data-name="Camada 1"><path class="cls-1" d="M122.59,25.82A26.71,26.71,0,0,0,97.06,44c-.57,0-1.11.19-1.68.26-.89.11-1.78.22-2.65.41s-1.58.43-2.36.68c-.56.18-1.14.27-1.69.49l0,.1A26.24,26.24,0,0,0,72.07,74.62c-.12,0-.22.1-.34.14a32.28,32.28,0,0,0-3.85,1.57c-.26.12-.52.23-.77.36s-.28.12-.41.19l0,0a31.6,31.6,0,0,0-16.93,28,29.46,29.46,0,0,0,.24,3.69,31.73,31.73,0,0,0-12.45,28.63c.07.71.21,1.4.32,2.09.06.36.1.73.17,1.08.18.88.42,1.75.68,2.61,0,.15.07.3.12.45.29.91.63,1.81,1,2.69l.09.24c.36.85.78,1.68,1.22,2.49.06.11.11.22.17.33.42.75.87,1.47,1.35,2.19.11.17.21.34.32.5.44.63.91,1.24,1.4,1.84.19.24.38.48.58.71.44.52.91,1,1.39,1.5.29.3.57.59.87.88s.36.38.55.56a31.16,31.16,0,0,0-5,17,31.82,31.82,0,0,0,19,29,30.81,30.81,0,0,0-1.07,8.19,32.2,32.2,0,0,0,31,31.94,32.32,32.32,0,0,0,24.66,11.24c17.84,0,32.36-14.32,32.36-31.9l.66-170.55h0A26.76,26.76,0,0,0,122.59,25.82Zm20.27,197.09a26.46,26.46,0,0,1-47.22,15.95l-1-1.14H93.16a26.26,26.26,0,0,1-26.38-26.07,24.32,24.32,0,0,1,1.59-8.85l1.11-2.85-2.93-1a26,26,0,0,1-17.72-24.52A25.34,25.34,0,0,1,52.68,161a32.49,32.49,0,0,0,17.13,4.88V160a26.52,26.52,0,0,1-18.64-7.62l-.09-.1a26.33,26.33,0,0,1-3-3.63l-.17-.23a25.94,25.94,0,0,1-2.25-4.09l-.23-.53A25.57,25.57,0,0,1,44,139.39c0-.19-.06-.38-.1-.57a25.64,25.64,0,0,1-.5-4.87A26,26,0,0,1,55,112.37l1.6-1.08-.35-1.89a24.34,24.34,0,0,1-.43-4.48A25.81,25.81,0,0,1,71.69,81.08l.29-.13a27,27,0,0,1,4.26-1.34l.32-.07a26.83,26.83,0,0,1,5.63-.64,26.18,26.18,0,0,1,26.28,23.42l6-.59A32.12,32.12,0,0,0,82.2,73a32.88,32.88,0,0,0-4.28.29A20.44,20.44,0,0,1,92.08,51a21,21,0,0,1,2.59-.75c.17,0,.36,0,.53-.05a21.31,21.31,0,0,1,3.46-.32h.07l2.81.67.11-.46A20.88,20.88,0,0,1,117.23,61l5.3-2.74a26.8,26.8,0,0,0-19.22-13.8,21.09,21.09,0,0,1,19.29-12.71,20.82,20.82,0,0,1,20.93,20.64Z"/><path class="cls-1" d="M91.62,191.16a32.93,32.93,0,0,0-3.83-.24v5.9a26.27,26.27,0,0,1,26.42,26.06h6a32.06,32.06,0,0,0-22.57-30.44,26.22,26.22,0,0,1,26.18-23.69v-5.9A32.28,32.28,0,0,0,91.62,191.16Z"/><path class="cls-1" d="M104.44,135.28a23.15,23.15,0,0,0,.25-2.68,32.35,32.35,0,0,0,18.07-8.14l-4.07-4.33a26.55,26.55,0,0,1-43.92-14.41l-5.88,1.06a32.14,32.14,0,0,0,29.82,26c-.06.42,0,.86-.12,1.28A17.15,17.15,0,0,1,81.1,147.7l-.16,5.9h.64A23.31,23.31,0,0,0,104.44,135.28Z"/><path class="cls-2" d="M96.57,284.31c-1.6-.64-3.21-1.31-4.8-2l7.89-17.53c1.38.61,2.79,1.19,4.19,1.75ZM46.3,251.71c-1.23-1.19-2.45-2.43-3.64-3.66l14.11-13.2c1,1.08,2.11,2.16,3.18,3.2Zm-33.82-49c-.68-1.56-1.33-3.16-2-4.74L28.66,191c.54,1.38,1.12,2.78,1.71,4.14ZM0,144.74q0-1.3,0-2.6c0-.84,0-1.68,0-2.51l19.45.31q0,1.1,0,2.2c0,.76,0,1.53,0,2.29ZM28.63,93.32,10.49,86.4c.62-1.59,1.28-3.19,2-4.76l17.89,7.51C29.75,90.53,29.18,91.93,28.63,93.32Zm28.1-43.85L42.61,36.28C43.8,35,45,33.81,46.25,32.62L59.91,46.27C58.84,47.31,57.77,48.39,56.73,49.47ZM99.59,19.53,91.69,2c1.58-.69,3.19-1.36,4.78-2l7.29,17.79C102.36,18.34,101,18.93,99.59,19.53Z"/><polygon class="cls-2" points="237.52 106.46 188.23 48.6 172.05 48.6 172.05 127.8 186.78 127.8 186.78 69.83 236.18 127.8 252.35 127.8 252.35 48.6 237.52 48.6 237.52 106.46"/><polygon class="cls-2" points="265.07 127.8 339.01 127.8 339.01 113.17 279.9 113.17 279.9 95.57 327.41 95.57 327.41 80.83 279.9 80.83 279.9 63.23 339.01 63.23 339.01 48.6 265.07 48.6 265.07 127.8"/><path class="cls-2" d="M422.77,50.8A15.19,15.19,0,0,0,415,48.71H350.27V127.8H365V100.74l26.26-.06,23,27.12h16.06v-4.07l-19.82-23.09H415A15.62,15.62,0,0,0,428.45,93a14.66,14.66,0,0,0,2.12-7.7V64a14.38,14.38,0,0,0-2.12-7.65A16.09,16.09,0,0,0,422.77,50.8Zm-7,34a1,1,0,0,1-.45.88,1.65,1.65,0,0,1-1,.33h-48a1.42,1.42,0,0,1-.95-.33,1.09,1.09,0,0,1-.39-.88V64.55a1.26,1.26,0,0,1,.39-.94,1.3,1.3,0,0,1,.95-.38h48a1.5,1.5,0,0,1,1,.38,1.2,1.2,0,0,1,.45.94Z"/><path class="cls-2" d="M520.69,56.25A16.09,16.09,0,0,0,515,50.69a15.19,15.19,0,0,0-7.81-2.09H442.51v79.2h64.69a15.17,15.17,0,0,0,7.81-2.09,16.08,16.08,0,0,0,5.69-5.56,14.38,14.38,0,0,0,2.12-7.65V63.89A14.39,14.39,0,0,0,520.69,56.25ZM508,111.85a1.19,1.19,0,0,1-.45.94,1.49,1.49,0,0,1-1,.39H458.45a1.29,1.29,0,0,1-.95-.39,1.26,1.26,0,0,1-.39-.94V64.55a1.26,1.26,0,0,1,.39-.94,1.3,1.3,0,0,1,.95-.38h48.07a1.5,1.5,0,0,1,1,.38,1.2,1.2,0,0,1,.45.94Z"/><path class="cls-1" d="M195.81,171.69a27.36,27.36,0,0,1,13.72-3.41,25.09,25.09,0,0,1,12.38,3,20.32,20.32,0,0,1,8.36,9h15.28a34.25,34.25,0,0,0-14-17,42.8,42.8,0,0,0-41.93-1,37.47,37.47,0,0,0-14.39,13.92,40.9,40.9,0,0,0,0,40.26,37.58,37.58,0,0,0,14.33,13.92,40.49,40.49,0,0,0,20,5,41.15,41.15,0,0,0,22-5.94,34,34,0,0,0,14-16.94H230.27a20.31,20.31,0,0,1-8.36,9,25.09,25.09,0,0,1-12.38,3A27,27,0,0,1,195.81,221a24.24,24.24,0,0,1-9.42-9.85,34.12,34.12,0,0,1,0-29.7A23.88,23.88,0,0,1,195.81,171.69Z"/><path class="cls-1" d="M303.32,207.87q0,8.14-4.18,12.49t-11.32,4.34q-7.14,0-11.26-4.34t-4.13-12.49V174.11h-12.6v35.64a28.22,28.22,0,0,0,3.29,14.08,21.59,21.59,0,0,0,9,8.8,27.86,27.86,0,0,0,13,3,25.23,25.23,0,0,0,10.32-2.14,20.54,20.54,0,0,0,7.86-5.88v7.15H316V174.11H303.32Z"/><rect class="cls-1" x="332.76" y="153.32" width="12.71" height="81.4"/><path class="cls-1" d="M377,159H364.21v15.07H357v10.23h7.25v33.55q0,8.91,4.57,12.87t13.16,4h10V224.26h-7.81q-3.9,0-5.52-1.48t-1.62-4.9V184.33H392V174.11H377Z"/><path class="cls-1" d="M446.63,207.87q0,8.14-4.18,12.49t-11.32,4.34q-7.14,0-11.26-4.34t-4.13-12.49V174.11h-12.6v35.64a28.22,28.22,0,0,0,3.29,14.08,21.59,21.59,0,0,0,9,8.8,27.86,27.86,0,0,0,13,3,25.23,25.23,0,0,0,10.32-2.14,20.54,20.54,0,0,0,7.86-5.88v7.15h12.71V174.11H446.63Z"/><path class="cls-1" d="M488.79,182.91v-8.8H476.07v60.61h12.71v-31.9q0-9.24,3.85-13T504,186.09h3.23v-13a22.18,22.18,0,0,0-11,2.58A19.83,19.83,0,0,0,488.79,182.91Z"/><path class="cls-1" d="M575.22,202.92a31.3,31.3,0,0,0-3.79-15.56,26.61,26.61,0,0,0-10.59-10.5,31.66,31.66,0,0,0-15.5-3.74,32.56,32.56,0,0,0-16,3.85,26.86,26.86,0,0,0-10.82,10.95,34,34,0,0,0-3.85,16.45,33.18,33.18,0,0,0,4,16.44,28,28,0,0,0,10.93,11,31.71,31.71,0,0,0,15.78,3.91q10.82,0,18.12-5.33a27.33,27.33,0,0,0,10.09-13.7H559.83q-4.24,8.47-14.5,8.47a17.39,17.39,0,0,1-12-4.4,16.71,16.71,0,0,1-5.47-11.66h47A38.82,38.82,0,0,0,575.22,202.92Zm-47.29-4a17.15,17.15,0,0,1,5.58-11.17,16.46,16.46,0,0,1,11.26-4.12,18.1,18.1,0,0,1,12.16,4.18,14.19,14.19,0,0,1,5,11.11Z"/></g></g></svg>